<svg width="400" height="400" viewBox="0 0 400 400" fill="none" xmlns="http://www.w3.org/2000/svg">
<path d="M347.88 143.594C349.92 143.429 351.967 143.376 354.07 143.615C363.455 144.681 373.432 155.786 372.357 165.338C371.795 170.338 365.547 176.365 361.502 179.106C346.105 189.541 328.335 195.988 309.555 192.728C304.625 192.021 298.152 189.922 294.055 187.141C290.925 185.017 284.847 179.74 284.02 175.815C283.8 174.776 284.132 173.703 284.802 172.895C286.37 171.011 289.345 169.582 291.442 168.221C304.907 159.485 332.165 145.281 347.88 143.594Z" fill="#212121"/>
<path d="M359.262 155.62C360.41 155.395 360.985 155.39 361.445 156.471C361.097 159.08 356.477 163.618 354.387 165.124C339.72 175.693 323.3 183.485 304.995 181.191L302.06 180.634C316.42 171.686 342.525 156.626 359.262 155.62Z" fill="#212121"/>
<path d="M205.297 267.699C207.215 268.079 209.345 269.522 210.511 271.097C224.48 289.952 235.033 313.642 233.794 337.542C233.32 346.684 230.53 356.904 223.516 363.194C217.742 367.572 212.647 364.754 208.175 360.067C198.073 349.477 196.82 334.104 197.225 320.204C197.302 316.399 197.58 312.602 198.055 308.827C199.707 295.972 203.057 283.184 204.143 270.194C204.217 269.314 204.646 268.312 205.297 267.699Z" fill="#212121"/>
<path d="M214.478 286.652C215.108 287.172 216.749 291.207 217.161 292.182C221.577 302.63 224.006 313.972 223.694 325.34C223.46 333.857 220.847 344.665 214.485 350.637C213.409 351.452 212.08 352.367 210.718 352.53C209.098 351.885 208.714 348.165 208.379 346.497C205.891 334.12 208.042 322.027 210.024 309.78C211.302 301.885 212.498 294.455 214.478 286.652Z" fill="#212121"/>
<path d="M99.6407 197.34C100.573 197.228 101.764 197.297 102.53 197.764C107.613 200.739 111.63 206.123 108.134 212.001C107.457 213.373 106.527 215.324 105.378 216.385C92.9542 227.847 76.0655 236.028 59.018 236.685C52.0492 236.954 46.1894 237.64 39.9562 234.74C33.1027 231.108 23.5035 218.24 29.0279 210.531C34.2832 203.198 50.5557 202.871 58.9625 201.794C72.3247 200.083 86.2869 199.575 99.6407 197.34Z" fill="#212121"/>
<path d="M91.8825 211.114C92.6233 211.03 92.3055 210.947 92.8878 211.244C92.7878 211.404 92.64 211.66 92.4795 211.771C79.6033 220.681 64.2521 225.764 48.5546 225.742C45.3831 225.737 42.4296 225.839 39.3143 225.431C34.2936 224.178 39.3256 219.458 41.9133 218.186C48.451 214.971 55.612 214.398 62.743 213.59C72.436 212.542 82.1518 211.717 91.8825 211.114Z" fill="#212121"/>
<path d="M177.905 34.7616C178.771 34.6713 179.646 34.7018 180.503 34.8523C186.516 35.8646 191.104 40.6048 194.582 45.6098C210.688 68.7866 203.579 99.8018 201.399 125.915C201.318 126.883 200.989 127.33 200.245 127.849C199.383 127.971 198.941 127.638 198.145 127.246C197.158 126.797 196.178 126.336 195.203 125.861C191.341 123.96 188.86 121.116 187.294 117.093C182.242 104.12 159.285 40.9723 177.905 34.7616Z" fill="#212121"/>
<path d="M184.993 46.2756L185.313 46.2674C201.131 45.8976 194.095 103.574 194.238 113.652L193.145 111.691C192.996 111.399 192.852 111.103 192.714 110.805C191.362 107.889 189.292 101.964 188.174 98.3494C183.684 83.8299 177.62 65.0119 181.921 49.8081C182.404 48.0991 183.446 46.9809 184.993 46.2756Z" fill="#212121"/>
<path d="M92.4468 130.029C93.1813 129.999 93.9468 129.955 94.6743 130.08C101.55 131.259 120.127 148.561 125.768 153.604C127.497 155.149 130.509 157.022 131.718 158.953C131.948 159.32 131.959 159.57 131.816 159.974C131.119 161.933 127.637 163.439 125.875 164.182C123.067 164.99 120.563 165.436 118.203 163.344C115.766 161.183 113.539 158.89 111.203 156.625C108.124 153.689 105.017 150.785 101.881 147.911C98.7408 145.009 88.2028 136.424 86.6338 134.024C88.4568 131.616 89.6005 130.936 92.4468 130.029Z" fill="#212121"/>
<path d="M273.12 93.207C276.443 94.2423 278.255 97.3738 279.038 100.548C277.673 106.886 260.205 130.221 254.325 132.287C250.705 131.196 249.105 127.986 247.898 124.681C251.055 119.765 257.425 113.338 261.388 108.464C265.098 103.904 269.4 97.3893 273.12 93.207Z" fill="#212121"/>
<path d="M272.163 238.85C273.783 238.574 277.225 239.871 278.5 240.869C287.608 248.004 296.78 255.056 305.925 262.138C306.735 262.763 306.755 262.893 306.913 263.823C306.223 266.556 301.163 266.816 298.86 266.673C293.583 265.026 266.945 247.486 262.973 242.713C265.768 240.04 268.368 239.267 272.163 238.85Z" fill="#212121"/>
<path d="M152.275 251.218C156.486 250.78 154.07 258.125 152.923 259.775C147.332 267.815 140.835 275.198 135.382 283.388C133.344 286.448 129.998 291.175 127.253 293.418C126.829 293.598 126.677 293.625 126.232 293.748L125.724 293.408C125.005 291.313 125.747 288.198 126.953 286.393C133.57 276.48 140.08 266.39 147.46 257.02C148.884 255.213 150.6 252.743 152.275 251.218Z" fill="#212121"/>
<path d="M88.1991 257.013C93.5329 256.878 99.3096 266.268 89.5539 270.621C85.4661 269.046 82.9346 265.408 81.8916 261.288C83.9461 258.941 85.2689 258.033 88.1991 257.013Z" fill="#212121"/>
<path d="M266.19 286.279C269.247 286.059 272.722 289.929 272.862 292.819C272.955 294.691 269.762 298.901 268.4 300.151L268.095 300.031C265.357 298.944 262.59 296.361 261.52 293.626C259.742 289.076 262.642 287.484 266.19 286.279Z" fill="#212121"/>
<path d="M138.1 105.176L138.193 105.185C141.162 105.439 143.355 109.725 144.049 112.288C143.36 114.89 141.876 118.169 138.674 117.636C136.198 116.257 132.068 112.163 132.23 109.145C132.293 107.969 136.889 105.974 138.1 105.176Z" fill="#212121"/>
<path d="M307.435 118.286C308.26 118.235 308.812 118.236 309.577 118.601C311.217 119.375 312.48 120.773 313.085 122.483C314.09 125.354 312.195 129.305 309.43 130.308C304.622 128.629 298.197 120.53 307.435 118.286Z" fill="#212121"/>
</svg>
