<svg width="280" height="200" viewBox="0 0 280 200" fill="none" xmlns="http://www.w3.org/2000/svg">

  <!-- Shadow -->
  <ellipse cx="140" cy="192" rx="110" ry="8" fill="#a8a29e" opacity="0.3"/>

  <!-- === BASE === -->
  <path d="M28 140 L252 140 L264 178 C264 182 262 184 258 184 L22 184 C18 184 16 182 16 178 Z" fill="url(#baseGrad)" stroke="#a8a29e" stroke-width="0.5"/>

  <!-- Base top highlight -->
  <path d="M28 140 L252 140 L254 145 L26 145 Z" fill="#d6d3d1" opacity="0.6"/>

  <!-- Keyboard keys row 1 -->
  <rect x="58" y="149" width="15" height="9" rx="2" fill="#c8c4c0" stroke="#b8b4af" stroke-width="0.3"/>
  <rect x="76" y="149" width="15" height="9" rx="2" fill="#c8c4c0" stroke="#b8b4af" stroke-width="0.3"/>
  <rect x="94" y="149" width="15" height="9" rx="2" fill="#c8c4c0" stroke="#b8b4af" stroke-width="0.3"/>
  <rect x="112" y="149" width="15" height="9" rx="2" fill="#c8c4c0" stroke="#b8b4af" stroke-width="0.3"/>
  <rect x="130" y="149" width="15" height="9" rx="2" fill="#c8c4c0" stroke="#b8b4af" stroke-width="0.3"/>
  <rect x="148" y="149" width="15" height="9" rx="2" fill="#c8c4c0" stroke="#b8b4af" stroke-width="0.3"/>
  <rect x="166" y="149" width="15" height="9" rx="2" fill="#c8c4c0" stroke="#b8b4af" stroke-width="0.3"/>
  <rect x="184" y="149" width="15" height="9" rx="2" fill="#c8c4c0" stroke="#b8b4af" stroke-width="0.3"/>
  <rect x="202" y="149" width="15" height="9" rx="2" fill="#c8c4c0" stroke="#b8b4af" stroke-width="0.3"/>

  <!-- Keyboard keys row 2 -->
  <rect x="62" y="161" width="15" height="9" rx="2" fill="#c8c4c0" stroke="#b8b4af" stroke-width="0.3"/>
  <rect x="80" y="161" width="15" height="9" rx="2" fill="#c8c4c0" stroke="#b8b4af" stroke-width="0.3"/>
  <rect x="98" y="161" width="15" height="9" rx="2" fill="#c8c4c0" stroke="#b8b4af" stroke-width="0.3"/>
  <rect x="116" y="161" width="15" height="9" rx="2" fill="#c8c4c0" stroke="#b8b4af" stroke-width="0.3"/>
  <rect x="134" y="161" width="15" height="9" rx="2" fill="#c8c4c0" stroke="#b8b4af" stroke-width="0.3"/>
  <rect x="152" y="161" width="15" height="9" rx="2" fill="#c8c4c0" stroke="#b8b4af" stroke-width="0.3"/>
  <rect x="170" y="161" width="15" height="9" rx="2" fill="#c8c4c0" stroke="#b8b4af" stroke-width="0.3"/>
  <rect x="188" y="161" width="15" height="9" rx="2" fill="#c8c4c0" stroke="#b8b4af" stroke-width="0.3"/>
  <rect x="206" y="161" width="15" height="9" rx="2" fill="#c8c4c0" stroke="#b8b4af" stroke-width="0.3"/>

  <!-- Trackpad -->
  <rect x="108" y="173" width="64" height="6" rx="2" fill="#b8b4af" stroke="#a8a29e" stroke-width="0.3"/>

  <!-- === HINGE === -->
  <rect x="26" y="137" width="228" height="5" rx="2" fill="url(#hingeGrad)"/>

  <!-- === SCREEN === -->
  <!-- Screen outer shell -->
  <rect x="30" y="6" width="220" height="133" rx="8" fill="url(#screenShellGrad)" stroke="#a8a29e" stroke-width="0.5"/>

  <!-- Screen bezel -->
  <rect x="36" y="12" width="208" height="121" rx="5" fill="url(#bezelGrad)"/>

  <!-- Screen display -->
  <rect x="46" y="22" width="188" height="101" rx="3" fill="url(#displayGrad)"/>

  <!-- Screen glare -->
  <rect x="46" y="22" width="188" height="50" rx="3" fill="url(#glareGrad)" opacity="0.15"/>

  <!-- Camera dot -->
  <circle cx="140" cy="16" r="2" fill="#a8a29e"/>

  <defs>
    <linearGradient id="baseGrad" x1="140" y1="140" x2="140" y2="184" gradientUnits="userSpaceOnUse">
      <stop offset="0" stop-color="#c8c4c0"/>
      <stop offset="1" stop-color="#a8a29e"/>
    </linearGradient>

    <linearGradient id="hingeGrad" x1="140" y1="137" x2="140" y2="142" gradientUnits="userSpaceOnUse">
      <stop offset="0" stop-color="#b8b4af"/>
      <stop offset="0.5" stop-color="#a8a29e"/>
      <stop offset="1" stop-color="#908a84"/>
    </linearGradient>

    <linearGradient id="screenShellGrad" x1="140" y1="6" x2="140" y2="139" gradientUnits="userSpaceOnUse">
      <stop offset="0" stop-color="#d6d3d1"/>
      <stop offset="0.5" stop-color="#c8c4c0"/>
      <stop offset="1" stop-color="#b8b4af"/>
    </linearGradient>

    <linearGradient id="bezelGrad" x1="140" y1="12" x2="140" y2="133" gradientUnits="userSpaceOnUse">
      <stop offset="0" stop-color="#b8b4af"/>
      <stop offset="1" stop-color="#a8a29e"/>
    </linearGradient>

    <linearGradient id="displayGrad" x1="140" y1="22" x2="140" y2="123" gradientUnits="userSpaceOnUse">
      <stop offset="0" stop-color="#fafaf9"/>
      <stop offset="1" stop-color="#e7e5e4"/>
    </linearGradient>

    <linearGradient id="glareGrad" x1="140" y1="22" x2="140" y2="72" gradientUnits="userSpaceOnUse">
      <stop offset="0" stop-color="white"/>
      <stop offset="1" stop-color="white" stop-opacity="0"/>
    </linearGradient>
  </defs>
</svg>
