<svg width="400" height="400" viewBox="0 0 400 400" fill="none" xmlns="http://www.w3.org/2000/svg">
<path d="M129.156 96.8166C130.996 96.5036 133.837 96.7399 135.679 97.1294C145.469 99.2006 152.299 107.235 160.023 112.95C169.646 120.069 179.941 126.373 192.275 126.518C206.575 126.685 215.229 116.17 225.741 108.359C232.798 103.056 238.517 98.9846 247.763 99.9659C259.14 100.596 263.38 106.587 270.537 114.344C274.14 118.247 280.05 122.7 284.872 124.747C290.217 127.069 296.137 127.731 301.865 126.648C319.5 123.456 327.47 109.516 343.337 103.054C360.985 95.8669 377.312 102.793 359.01 120.333C332.2 146.023 294.07 151.884 260.615 136.253C255.822 134.041 250.147 131.191 245.483 128.704C241.563 130.443 237.684 132.658 233.836 134.598C210.241 146.495 172.858 144.633 149.287 133.893C143.998 131.452 139.019 128.389 134.457 124.769C130.823 127.032 127.172 129.882 123.474 132.332C115.699 137.483 105.088 141.088 95.7928 142.844C70.8648 147.116 40.2718 147.869 17.6912 135.07C11.7009 131.675 5.61221 121.015 14.6143 117.272C23.4451 113.6 37.128 115.772 45.4125 120.513C54.0535 125.802 60.522 130.259 71.1745 130.37C95.9768 130.627 107.607 100.57 129.156 96.8166Z" fill="#212121"/>
<path d="M380.382 244.383C388.907 244.559 392.457 249.418 388.207 257.375C385.597 262.21 381.67 266.177 377.562 269.755C350.512 293.312 310.075 293.762 277.945 281.43C269.962 278.367 262.74 274.642 255.232 270.705C249.18 273.695 243.394 277.485 237.171 280.425C214.638 291.065 188.149 293.67 163.862 288.335C156.488 286.715 148.615 283.742 141.524 281.215C136.351 284.397 131.018 288.037 125.706 290.892C97.8672 305.865 53.182 309.462 26.8677 289.7C14.2102 279.332 24.022 274.247 35.8252 275.317C47.8925 276.412 55.3775 282.652 66.2742 285.557C71.6557 286.962 77.2767 287.195 82.7552 286.235C92.8972 284.362 106.19 275.445 113.81 269.155C132.516 253.71 150.243 260.742 169.83 269.57C186.252 276.97 206.103 273.697 220.908 263.63C229.382 257.867 237.765 249.517 248.845 250.337C275.095 252.04 297.297 273.667 324.235 271.907C346.495 269.912 355.082 245.478 380.382 244.383Z" fill="#212121"/>
<path d="M125.139 180.591C143.353 178.109 166.305 201.96 184.583 204.062C202.993 206.374 217.17 191.922 232.31 183.824C247.289 175.812 262.848 186.204 276.625 192.622C280.51 194.428 284.49 196.022 288.55 197.397C300.673 201.519 318.635 204.648 328.63 194.684C332.503 190.826 333.98 187.156 339.57 184.55C347.123 181.112 356.415 180.332 364.325 182.923C369.945 184.764 371.325 189.256 369.07 194.38C365.778 201.867 356.433 207.093 348.985 209.846C326.75 218.064 301.093 219.692 277.98 214.624C272.225 213.324 267.1 211.315 261.78 209C257.038 206.927 251.868 204.768 247.233 202.545C243.697 204.578 240.162 206.99 236.594 209.074C230.461 212.665 223.896 215.459 217.056 217.389C196.619 223.258 173.069 222.058 153.102 214.863C145.741 212.21 137.958 208.207 131.075 204.395C117.17 210.742 104.137 217.099 88.9794 220.778C67.9897 225.872 39.8019 227.938 20.3318 216.688C17.6937 215.164 11.4631 210.548 10.8304 207.43C10.6396 206.483 10.8684 205.501 11.4576 204.736C16.4328 198.273 34.1142 201.146 41.1194 203.608C46.3384 205.441 50.5009 207.222 56.0874 207.739C71.4069 209.156 86.0449 203.419 98.5969 195.03C107.246 189.25 114.304 181.796 125.139 180.591Z" fill="#212121"/>
</svg>
