<svg width="400" height="400" viewBox="0 0 400 400" fill="none" xmlns="http://www.w3.org/2000/svg">
<path d="M329.975 26.6447C332.467 26.4537 337.265 32.9882 334.615 35.9845C329.342 41.9472 323.53 46.7675 318.715 53.19C327.24 49.4117 361.037 26.9292 366.685 27.3127C367.652 27.3785 368.435 28.2085 368.992 28.925C369.977 30.1892 371.45 32.88 371.172 34.5092C370.942 35.8565 369.6 36.731 368.527 37.4115C363.867 40.3682 358.405 42.4345 353.54 45.088C347.212 48.5387 341.455 52.9292 335.675 57.2035C340.665 56.5202 346.295 54.816 351.43 53.8015C356.76 52.7485 364.02 52.094 368.992 50.5317C369.725 51.0127 370.277 51.517 370.935 52.0667C372.262 53.1675 375.915 58.599 373.037 59.6447C367.02 61.832 359.115 62.9235 352.862 64.1575C349.032 64.906 345.23 65.7797 341.457 66.777C330.977 69.5742 320.632 72.8515 310.455 76.5987C306.477 78.0482 302.752 79.1005 299.13 81.3085C294.835 83.9235 292.28 86.9632 288.615 90.1802C287.725 90.9617 285.075 91.6485 283.94 92.5485C278.35 96.9857 272.737 101.388 267.357 106.067C271.312 105.271 275.09 103.944 278.947 102.79C282.625 101.69 286.372 100.762 290.087 99.7877C301.745 96.731 313.535 94.2695 325.275 91.552C327.985 90.9245 330.712 90.2975 333.392 89.5535C335.14 89.0687 336.852 88.3757 338.652 88.1152C341.065 87.766 343.215 88.267 345.145 89.7627C346.282 90.644 347.372 91.887 347.507 93.376C347.627 94.6962 346.882 95.7495 345.825 96.4547C341.102 99.6095 313.322 105.15 306.13 106.84C289.902 110.653 274.112 115.161 258.26 120.318C254.127 121.663 249.281 122.605 245.534 124.804C242.671 126.484 239.865 129.7 237.405 131.966C230.577 138.182 223.924 144.589 217.455 151.178C215.087 153.547 212.119 156.216 209.963 158.653C215.802 156.165 224.059 150.998 230.431 147.913C248.508 139.032 266.995 131.007 285.827 123.867C289.412 122.516 296.095 119.401 299.77 119.244C301.76 119.158 303.66 119.787 305.135 121.145C306.097 122.031 306.825 123.197 306.827 124.538C306.827 125.541 306.442 126.389 305.73 127.09C303.95 128.839 282.602 136.918 278.97 138.403C253.452 148.827 204.132 170.226 185.629 189.375C184.01 188.727 183.509 188.502 182.127 187.481C177.626 191.988 172.23 198.406 167.94 203.244C158.222 214.15 148.755 225.277 139.547 236.617C144.224 234.423 151.432 229.264 156.491 226.351C170.408 218.336 184.094 209.911 198.355 202.459C203.057 200.003 208.817 195.958 213.713 194.34C214.269 194.53 214.855 194.715 215.384 194.973C216.946 195.734 218.806 197.94 219.366 199.598C219.598 200.288 219.652 201.088 219.272 201.738C217.19 205.306 166.696 233.005 158.948 237.633C151.997 241.811 145.177 246.203 138.498 250.801C134.163 253.823 129.93 256.988 125.806 260.291C122.726 262.708 118.7 266.438 114.937 267.356C111.902 271.128 108.745 275.536 105.827 279.456C109.437 277.648 113.1 275.031 116.524 272.838C133.205 262.146 150.916 253.086 168.847 244.69C174.468 242.058 180.916 238.48 186.772 236.641C189.619 237.516 193.925 240.907 192.386 244.459C192.14 245.027 190.058 246.35 189.475 246.656C168.883 257.463 147.862 266.498 127.868 278.516C124.233 280.638 103.175 293.658 101.38 295.811C100.2 297.226 99.9006 299.751 99.0614 301.428C97.6646 304.221 95.3429 306.898 93.6711 309.583C89.4116 316.423 85.4016 323.391 80.8034 330.016C72.9329 341.358 63.8231 351.566 54.2279 361.456C50.8434 364.946 47.0406 369.488 42.8134 371.926C40.8889 373.033 37.5624 372.628 35.0371 373.448C32.0851 372.566 29.7799 370.891 28.0956 368.291C26.0879 365.193 25.6646 361.561 26.4319 357.996C30.4886 339.136 60.3901 302.738 75.5096 289.578C78.3121 287.141 81.4151 285.163 84.5411 283.171L84.5814 283.078C85.8836 280.108 87.4209 273.966 88.4094 270.628C90.0789 265.128 91.8724 259.663 93.7881 254.243C101.056 232.759 109.402 211.654 118.793 191.01C119.728 188.934 123.302 178.386 126.044 179.707C129.209 181.231 131.382 185.144 129.89 188.695C118.804 215.057 106.084 241.777 98.6511 269.473C103.734 261.846 110.391 254.466 115.774 246.989C116.838 245.51 118.578 243.459 119.8 242.066C124.809 236.352 127.449 229.471 130.563 222.668C132.919 217.564 135.415 212.525 138.047 207.558C142.34 199.558 176.823 137.686 180.893 136.869C181.519 136.744 182.066 136.893 182.598 137.227C184.905 138.674 186.122 141.856 186.682 144.378C185.318 148.205 181.16 154.552 178.882 158.411L161.571 187.355C159.797 190.314 155.791 196.612 154.685 199.596C157.263 196.993 160.355 193.325 162.855 190.539C168.021 184.762 173.222 179.017 178.457 173.303C180.61 170.953 184.782 166.159 187.07 164.216C186.81 162.571 186.494 160.551 186.931 158.959C187.85 155.609 189.211 152.301 190.501 149.075C192.9 143.174 195.374 137.304 197.921 131.465C203.324 118.895 208.559 106.068 214.71 93.8445C216.087 91.1072 218.45 86.497 220.754 84.6512C222.476 83.272 225.888 87.246 226.452 88.701C227.799 91.2507 226.226 94.294 224.953 96.6037C218.565 108.195 213.59 120.515 208.222 132.606C205.72 138.241 202.9 144.236 200.66 149.968C204.303 146.282 207.984 142.634 211.703 139.024C214.1 136.741 220.168 131.353 221.753 128.917C223.624 126.043 226.436 120.834 228.275 117.669C231.926 111.386 235.744 105.202 239.726 99.1242C245.712 89.857 251.897 80.7212 258.282 71.7232C264.375 63.2987 270.837 54.982 277.102 46.6255C278.392 45.5622 283.135 36.8022 284.435 36.7787C289.072 36.6947 292.035 43.2465 289.672 47.316C285.805 53.9812 281.767 59.1792 277.38 64.961C271.102 73.2527 264.94 81.629 258.89 90.0872C256.22 93.789 251.267 100.325 249.13 104.09L248.945 104.419C254.34 101.049 261.895 94.0955 267.28 89.9035C271.782 86.4142 276.317 82.9627 280.877 79.5492C284.072 77.1815 289.832 73.4227 292.225 70.4552C303.617 56.319 315.512 37.6947 329.975 26.6447Z" fill="#212121"/>
</svg>
